<?xml version="1.0" standalone="no"?>
<!DOCTYPE svg PUBLIC "-//W3C//DTD SVG 20010904//EN"
 "http://www.w3.org/TR/2001/REC-SVG-20010904/DTD/svg10.dtd">
<svg version="1.0" xmlns="http://www.w3.org/2000/svg"
 width="512.000000pt" height="512.000000pt" viewBox="0 0 512.000000 512.000000"
 preserveAspectRatio="xMidYMid meet">
<metadata>
Created by potrace 1.14, written by Peter Selinger 2001-2017
</metadata>
<g transform="translate(0.000000,512.000000) scale(0.100000,-0.100000)"
fill="#000000" stroke="none">
<path d="M387 3803 c-2 -5 -3 -568 -3 -1253 l1 -1245 213 -3 c197 -2 212 -1
213 15 0 10 1 399 1 865 1 466 5 845 10 842 4 -3 8 -11 8 -18 0 -7 22 -82 49
-167 27 -85 100 -314 161 -509 61 -195 135 -431 165 -525 29 -93 56 -180 60
-193 l6 -22 211 2 210 3 125 405 c69 223 150 486 180 585 56 183 86 281 128
415 l24 75 0 -887 1 -888 215 0 215 0 0 1255 0 1255 -312 -2 -312 -3 -23 -80
c-60 -211 -114 -401 -117 -415 -7 -27 -166 -589 -242 -855 -87 -303 -82 -286
-83 -304 -2 -38 -24 22 -86 244 -37 132 -71 254 -75 270 -9 34 -84 297 -104
365 -7 25 -60 210 -117 413 l-104 367 -307 0 c-169 0 -309 -3 -311 -7z"/>
<path d="M2854 2565 l0 -1245 235 2 236 3 0 498 c0 435 2 497 15 498 17 1 226
1 252 0 11 -1 50 -60 114 -173 53 -95 116 -207 139 -248 23 -41 54 -96 68
-122 55 -99 172 -307 214 -380 l45 -78 285 0 285 0 -20 33 c-11 17 -102 174
-202 347 -101 173 -223 383 -271 466 -49 84 -91 158 -94 166 -4 11 10 21 53
36 110 40 225 129 289 223 56 81 102 190 118 274 3 17 8 46 12 65 11 66 5 264
-11 339 -33 153 -106 283 -209 377 -83 74 -159 114 -288 151 -13 4 -303 9
-645 10 l-620 4 0 -1246z m1129 784 c50 -14 107 -65 137 -126 22 -42 25 -61
25 -153 0 -94 -3 -110 -27 -155 -31 -61 -67 -97 -116 -121 -33 -16 -71 -18
-354 -19 -175 0 -319 2 -319 5 -1 3 -2 134 -3 293 l-1 287 310 0 c188 0 325
-4 348 -11z"/>
</g>
</svg>
