<?xml version="1.0" standalone="no"?>
<!DOCTYPE svg PUBLIC "-//W3C//DTD SVG 20010904//EN"
 "http://www.w3.org/TR/2001/REC-SVG-20010904/DTD/svg10.dtd">
<svg version="1.0" xmlns="http://www.w3.org/2000/svg"
 width="512.000000pt" height="512.000000pt" viewBox="0 0 512.000000 512.000000"
 preserveAspectRatio="xMidYMid meet">
<metadata>
Created by potrace 1.14, written by Peter Selinger 2001-2017
</metadata>
<g transform="translate(0.000000,512.000000) scale(0.100000,-0.100000)"
fill="#000000" stroke="none">
<path d="M981 3508 c-65 -10 -231 -87 -231 -106 0 -8 16 -45 36 -82 l36 -69
-12 -73 c-6 -40 -13 -89 -16 -108 -3 -19 -11 -73 -19 -120 -8 -47 -16 -107
-20 -135 -3 -27 -8 -59 -10 -70 -8 -33 -15 -78 -20 -125 -3 -25 -10 -70 -15
-100 -5 -30 -12 -72 -15 -94 -8 -64 -15 -120 -20 -146 -2 -14 -7 -52 -10 -85
-4 -33 -8 -71 -11 -85 -14 -93 -21 -303 -11 -358 13 -74 68 -120 155 -129 43
-5 138 20 186 48 35 20 36 23 21 43 -52 72 -59 156 -30 396 10 80 19 159 20
175 2 17 6 48 10 70 3 22 8 51 10 65 2 14 6 43 10 65 5 37 8 56 21 145 2 19 7
46 9 59 2 13 7 45 11 70 4 25 9 55 11 66 2 11 6 34 8 50 7 55 14 100 18 120 3
11 8 44 12 74 8 59 18 54 29 -14 9 -49 129 -618 155 -735 82 -364 135 -479
238 -520 48 -18 138 -9 203 22 73 35 90 50 96 84 51 294 209 689 382 954 78
121 234 291 227 250 -2 -14 -11 -65 -19 -115 -8 -49 -17 -106 -20 -125 -24
-152 -38 -240 -41 -270 -2 -19 -9 -62 -14 -95 -5 -33 -13 -84 -16 -114 -4 -30
-8 -63 -11 -74 -2 -11 -6 -45 -10 -76 -3 -31 -7 -67 -9 -81 -13 -104 -17 -161
-20 -275 -4 -144 11 -202 61 -238 58 -43 188 -36 271 14 l42 25 -18 36 c-39
72 -50 158 -37 278 14 117 34 274 40 306 2 12 7 45 11 75 3 30 8 61 10 69 2 8
7 35 10 60 3 25 8 59 11 75 3 17 7 41 9 55 2 14 9 57 15 95 13 75 14 82 25
164 3 30 9 63 11 75 2 12 9 53 15 91 6 39 12 81 14 95 10 59 19 127 19 148 1
12 3 22 6 22 10 0 3 97 -9 127 -21 51 -64 66 -154 52 -158 -25 -334 -153 -508
-369 -181 -226 -378 -619 -465 -929 -15 -55 -31 -101 -36 -101 -7 0 -30 72
-26 87 1 4 -4 27 -10 50 -7 23 -12 45 -11 50 1 4 0 11 -1 16 -6 16 -19 76 -25
112 -3 17 -7 41 -10 55 -3 14 -8 36 -11 50 -2 14 -7 36 -10 50 -4 14 -8 34
-10 45 -1 11 -14 74 -29 140 -96 446 -162 627 -258 698 -57 44 -150 60 -246
45z"/>
<path d="M3542 3505 c-71 -16 -210 -79 -219 -100 -3 -8 11 -45 32 -81 31 -58
35 -72 30 -113 -10 -79 -14 -105 -20 -131 -3 -14 -8 -47 -11 -75 -3 -27 -7
-52 -9 -55 -2 -3 -7 -33 -10 -65 -4 -33 -9 -63 -11 -66 -2 -4 -6 -31 -10 -60
-3 -30 -8 -57 -10 -60 -2 -3 -6 -33 -10 -65 -3 -32 -8 -62 -10 -66 -2 -3 -6
-26 -9 -50 -7 -64 -14 -120 -20 -148 -24 -125 -48 -369 -49 -495 -1 -149 14
-194 75 -230 53 -31 158 -27 237 9 34 16 62 32 62 37 0 5 -9 26 -21 48 -41 79
-44 189 -12 441 25 200 23 195 61 176 26 -13 151 -44 182 -45 8 -1 50 -2 92
-4 43 -2 79 -5 81 -8 2 -2 25 -53 51 -114 91 -207 194 -410 235 -462 24 -29
60 -60 84 -72 48 -23 128 -32 172 -19 17 5 37 11 46 13 33 7 100 46 106 61 3
9 -8 30 -29 52 -88 95 -208 289 -321 521 l-46 94 59 36 c116 72 194 156 251
271 141 282 75 595 -159 750 -86 57 -162 75 -312 75 -160 -1 -200 -11 -362
-93 -5 -2 -8 6 -8 17 0 32 -50 79 -90 84 -19 3 -63 -1 -98 -8z m560 -231 c135
-47 209 -159 210 -316 0 -86 -8 -123 -42 -193 -50 -103 -135 -177 -249 -217
-68 -24 -94 -29 -204 -34 -77 -3 -198 13 -214 29 -3 4 96 604 112 673 5 24 79
59 155 73 62 11 180 4 232 -15z"/>
</g>
</svg>
